<?xml version="1.0" encoding="UTF-8"?>
<!-- Scaleway logo -->
<svg width="800px" height="800px" viewBox="0 0 256 256" version="1.1" xmlns="http://www.w3.org/2000/svg" preserveAspectRatio="xMidYMid">
  <g>
    <path d="M128 0C57.3 0 0 57.3 0 128s57.3 128 128 128c24.5 0 47.4-6.9 66.8-18.8l-4.8-8.3c-18.2 11.1-39.5 17.5-62 17.5-65.4 0-118.4-53-118.4-118.4S62.6 9.6 128 9.6c65.4 0 118.4 53 118.4 118.4 0 22.5-6.4 43.8-17.5 62l8.3 4.8C248.9 175.4 256 152.5 256 128 256 57.3 198.7 0 128 0z" fill="#4F0599"/>
    <path d="M128 44.8c-45.9 0-83.2 37.3-83.2 83.2s37.3 83.2 83.2 83.2c16.2 0 31.3-4.6 44.1-12.6l-4.8-8.3c-11.5 7-24.9 11.3-39.3 11.3-41.4 0-75-33.6-75-75s33.6-75 75-75 75 33.6 75 75c0 14.4-4.3 27.8-11.3 39.3l8.3 4.8c8-12.8 12.6-27.9 12.6-44.1 0-45.9-37.3-83.2-83.2-83.2z" fill="#4F0599"/>
    <path d="M128 89.6c-21.2 0-38.4 17.2-38.4 38.4s17.2 38.4 38.4 38.4c5.8 0 11.3-1.3 16.2-3.6l-4.5-8.5c-3.6 1.6-7.5 2.5-11.7 2.5-15.5 0-28.1-12.6-28.1-28.1 0-15.5 12.6-28.1 28.1-28.1 15.5 0 28.1 12.6 28.1 28.1 0 4.2-.9 8.1-2.5 11.7l8.5 4.5c2.3-4.9 3.6-10.4 3.6-16.2 0-21.2-17.2-38.4-38.4-38.4z" fill="#4F0599"/>
  </g>
</svg>
