<svg xmlns="http://www.w3.org/2000/svg" viewBox="0 0 24 24"><desc>Planton-drawn glyph: a Cloud TPU VM: a square chip with pins on every side and a two-by-two grid of cores on its face</desc><rect x="5.5" y="5.5" width="13" height="13" rx="1.6" fill="#e8f0fe" stroke="#4285f4" stroke-width="1.5"/><rect x="8" y="8" width="3.4" height="3.4" rx="0.5" fill="#4285f4"/><rect x="12.6" y="8" width="3.4" height="3.4" rx="0.5" fill="#4285f4"/><rect x="8" y="12.6" width="3.4" height="3.4" rx="0.5" fill="#4285f4"/><rect x="12.6" y="12.6" width="3.4" height="3.4" rx="0.5" fill="#4285f4"/><path d="M9 5.5V3M12 5.5V3M15 5.5V3M9 21v-2.5M12 21v-2.5M15 21v-2.5M5.5 9H3M5.5 12H3M5.5 15H3M21 9h-2.5M21 12h-2.5M21 15h-2.5" stroke="#9aa0a6" stroke-width="1.2" stroke-linecap="round"/></svg>
